<svg xmlns="http://www.w3.org/2000/svg" xmlns:xlink="http://www.w3.org/1999/xlink" x="0px" y="0px"
	 viewBox="0 0 140 40" style="enable-background:new 0 0 140 40;" xml:space="preserve">
<style type="text/css">
	.wdt-main-logo-class-1{fill:#FFAB85;}
	.wdt-main-logo-class-2{fill:#FFDDCD;}
	.wdt-main-logo-class-3{fill:#EC6325;}
	.wdt-main-logo-class-4{fill:#FFFFFF;}
</style>
<g>
	<path class="wdt-main-logo-class-1" d="M108.3,15.4c-0.5,0-1-0.2-1.4-0.6c-0.9-0.8-0.9-2.1-0.1-3l9.7-10.6c0.8-0.9,2.1-0.9,3-0.1
		c0.9,0.8,0.9,2.1,0.1,3l-9.7,10.6C109.5,15.2,108.9,15.4,108.3,15.4L108.3,15.4z"/>
	<path class="wdt-main-logo-class-2" d="M99.9,15.4c-0.5,0-1-0.2-1.4-0.6c-0.9-0.8-0.9-2.1-0.1-3L108,1.2c0.8-0.9,2.1-0.9,3-0.1c0.9,0.8,0.9,2.1,0.1,3
		l-9.7,10.6C101,15.2,100.5,15.4,99.9,15.4L99.9,15.4z"/>
	<g>
		<path class="wdt-main-logo-class-3" d="M136.3,15.4c-0.6,0-1.1-0.2-1.6-0.7l-8.3-9l-8.3,9c-0.8,0.9-2.1,0.9-3,0.1c-0.9-0.8-0.9-2.1-0.1-3l9.9-10.6
			c0.4-0.4,1-0.7,1.6-0.7c0.6,0,1.2,0.2,1.6,0.7l9.9,10.6c0.8,0.9,0.7,2.2-0.1,3C137.3,15.2,136.8,15.4,136.3,15.4z"/>
		<path class="wdt-main-logo-class-3" d="M127.6,10.7h-2.5c-0.4,0-0.8,0.3-0.8,0.8v2.5c0,0.4,0.3,0.8,0.8,0.8h2.5c0.4,0,0.8-0.3,0.8-0.8v-2.5
			C128.4,11,128.1,10.7,127.6,10.7z"/>
	</g>
	<g>
		<path class="wdt-main-logo-class-4" d="M119,28.6c0-1.9,0.4-3.6,1.3-5.1c0.9-1.4,2.1-2.6,3.7-3.4c1.6-0.8,3.3-1.2,5.3-1.2c2,0,3.7,0.4,5.2,1.2
			c1.6,0.8,2.8,1.9,3.7,3.4c0.9,1.4,1.4,3.1,1.4,5.1c0,1.9-0.5,3.6-1.4,5.1c-0.9,1.4-2.1,2.6-3.7,3.4c-1.5,0.8-3.3,1.2-5.2,1.2
			c-2,0-3.7-0.4-5.3-1.2c-1.5-0.8-2.7-1.9-3.7-3.4C119.5,32.2,119,30.5,119,28.6z M124.3,28.6c0,1,0.2,2,0.6,2.8
			c0.5,0.8,1.1,1.4,1.8,1.8c0.7,0.4,1.6,0.6,2.5,0.6c0.9,0,1.7-0.2,2.5-0.6c0.7-0.5,1.3-1.1,1.8-1.8c0.5-0.8,0.7-1.7,0.7-2.8
			c0-1-0.2-2-0.7-2.8c-0.4-0.8-1-1.4-1.8-1.8c-0.7-0.4-1.6-0.6-2.5-0.6c-0.9,0-1.7,0.2-2.5,0.6c-0.7,0.4-1.4,1-1.8,1.8
			C124.5,26.6,124.3,27.6,124.3,28.6z"/>
		<path class="wdt-main-logo-class-4" d="M95.9,28.6c0-1.9,0.4-3.6,1.3-5.1c0.9-1.4,2.1-2.6,3.7-3.4c1.6-0.8,3.3-1.2,5.3-1.2c2,0,3.7,0.4,5.2,1.2
			c1.6,0.8,2.8,1.9,3.7,3.4c0.9,1.4,1.4,3.1,1.4,5.1c0,1.9-0.5,3.6-1.4,5.1c-0.9,1.4-2.1,2.6-3.7,3.4c-1.5,0.8-3.3,1.2-5.2,1.2
			c-2,0-3.7-0.4-5.3-1.2c-1.5-0.8-2.7-1.9-3.7-3.4C96.3,32.2,95.9,30.5,95.9,28.6z M101.2,28.6c0,1,0.2,2,0.6,2.8
			c0.5,0.8,1.1,1.4,1.8,1.8c0.7,0.4,1.6,0.6,2.5,0.6c0.9,0,1.7-0.2,2.5-0.6c0.7-0.5,1.3-1.1,1.8-1.8c0.5-0.8,0.7-1.7,0.7-2.8
			c0-1-0.2-2-0.7-2.8c-0.4-0.8-1-1.4-1.8-1.8c-0.7-0.4-1.6-0.6-2.5-0.6c-0.9,0-1.7,0.2-2.5,0.6c-0.7,0.4-1.4,1-1.8,1.8
			C101.4,26.6,101.2,27.6,101.2,28.6z"/>
		<path class="wdt-main-logo-class-4" d="M86.9,6.5h5.2v31.3h-5.2V6.5z M71.7,28.6c0-2.1,0.4-3.8,1.2-5.2c0.8-1.4,1.9-2.5,3.3-3.3
			c1.4-0.7,2.8-1.1,4.3-1.1c1.6,0,2.9,0.4,4.1,1.2c1.2,0.8,2.1,1.9,2.8,3.3c0.7,1.4,1,3.1,1,5.1c0,2-0.3,3.7-1,5.1
			c-0.7,1.4-1.6,2.6-2.8,3.3c-1.2,0.8-2.5,1.2-4.1,1.2c-1.5,0-3-0.4-4.3-1.1c-1.4-0.7-2.5-1.8-3.3-3.3
			C72.1,32.4,71.7,30.6,71.7,28.6z M77.1,28.6c0,1.1,0.2,2,0.7,2.9c0.5,0.8,1.1,1.4,1.8,1.8c0.8,0.4,1.6,0.6,2.5,0.6
			c0.8,0,1.5-0.2,2.2-0.6c0.7-0.4,1.4-1,1.8-1.8c0.5-0.8,0.7-1.8,0.7-2.9s-0.2-2.1-0.7-2.9c-0.5-0.8-1.1-1.4-1.8-1.8
			c-0.7-0.4-1.5-0.6-2.2-0.6c-0.9,0-1.7,0.2-2.5,0.6s-1.4,1-1.8,1.8C77.3,26.5,77.1,27.5,77.1,28.6z"/>
		<path class="wdt-main-logo-class-4" d="M59.4,38.2c-2,0-3.8-0.4-5.3-1.2c-1.5-0.8-2.7-1.9-3.5-3.3c-0.8-1.4-1.2-3.1-1.2-5.1c0-2,0.4-3.7,1.2-5.1
			c0.8-1.4,2-2.6,3.5-3.3c1.5-0.8,3.3-1.2,5.3-1.2c2,0,3.8,0.4,5.2,1.1c1.4,0.7,2.5,1.8,3.3,3.2c0.7,1.4,1.1,3.1,1.1,5.1
			c0,0.2,0,0.5,0,0.8c0,0.3,0,0.5,0,0.6H52.4v-3.2h12L63,28.4c0.1-0.2,0.2-0.4,0.3-0.6c0.1-0.3,0.2-0.5,0.2-0.7
			c0-0.9-0.2-1.7-0.5-2.3c-0.3-0.6-0.8-1.2-1.4-1.5c-0.6-0.4-1.3-0.6-2.2-0.6c-1,0-1.9,0.2-2.6,0.7c-0.7,0.4-1.2,1.1-1.6,2
			c-0.3,0.9-0.5,1.9-0.6,3.2c0,1.2,0.2,2.3,0.5,3.1c0.4,0.9,0.9,1.5,1.6,2c0.7,0.5,1.6,0.7,2.6,0.7c1.2,0,2.1-0.2,2.9-0.6
			c0.8-0.5,1.5-1.1,2-2l4.5,1.4c-1,1.7-2.2,3.1-3.9,3.9C63.5,37.8,61.6,38.2,59.4,38.2z"/>
		<path class="wdt-main-logo-class-4" d="M37.1,38.2c-2,0-3.8-0.4-5.3-1.2c-1.5-0.8-2.7-1.9-3.5-3.3c-0.8-1.4-1.2-3.1-1.2-5.1c0-2,0.4-3.7,1.2-5.1
			c0.8-1.4,2-2.6,3.5-3.3c1.5-0.8,3.3-1.2,5.3-1.2c2,0,3.8,0.4,5.2,1.1c1.4,0.7,2.5,1.8,3.3,3.2c0.7,1.4,1.1,3.1,1.1,5.1
			c0,0.2,0,0.5,0,0.8c0,0.3,0,0.5,0,0.6H30.1v-3.2h12l-1.4,1.8c0.1-0.2,0.2-0.4,0.3-0.6c0.1-0.3,0.2-0.5,0.2-0.7
			c0-0.9-0.2-1.7-0.5-2.3c-0.3-0.6-0.8-1.2-1.4-1.5c-0.6-0.4-1.3-0.6-2.2-0.6c-1,0-1.9,0.2-2.6,0.7c-0.7,0.4-1.2,1.1-1.6,2
			c-0.3,0.9-0.5,1.9-0.6,3.2c0,1.2,0.2,2.3,0.5,3.1c0.4,0.9,0.9,1.5,1.6,2c0.7,0.5,1.6,0.7,2.6,0.7c1.2,0,2.1-0.2,2.9-0.6
			c0.8-0.5,1.5-1.1,2-2l4.5,1.4c-1,1.7-2.2,3.1-3.9,3.9C41.2,37.8,39.3,38.2,37.1,38.2z"/>
		<path class="wdt-main-logo-class-4" d="M14.8,28l7.6-18.3H29L14.8,39.5L0.5,9.7h6.6L14.8,28z"/>
	</g>
</g>
</svg>
