<svg width="50" height="50" viewBox="0 0 50 50" fill="none" xmlns="http://www.w3.org/2000/svg">
<g clip-path="url(#clip0_20_168)">
<path d="M33.4912 45.9832C30.7286 45.9832 27.912 45.8183 25.3914 44.6527C19.1227 41.7538 15.3521 35.8003 15.3521 29.0954C15.3521 21.0827 21.6127 14.5886 29.3352 14.5886C33.9855 14.5886 38.104 16.9452 40.6458 20.5679H45.188C42.2144 14.6285 36.2318 10.5718 29.3352 10.5718C19.4745 10.5718 11.4805 18.8653 11.4805 29.0954C11.4805 38.2675 16.1357 45.8828 25.7928 49.0759C28.1068 49.841 30.5585 50 32.9887 50H49.9993V45.9832H33.4912Z" fill="#0F153B"/>
<path d="M28.7318 30.1394H23.5977V24.814H28.7318V30.1394Z" fill="#0F153B"/>
<path d="M35.0757 30.1394H29.9414V24.814H35.0757V30.1394Z" fill="#0F153B"/>
<path d="M28.7318 36.7218H23.5977V31.3956H28.7318V36.7218Z" fill="#0F153B"/>
<path d="M35.0757 36.7218H29.9414V31.3956H35.0757V36.7218Z" fill="#0F153B"/>
<path d="M0 28.9712L26.8983 0V6.09282L5.57898 28.9712H0Z" fill="#0F153B"/>
<path d="M46.549 20.5678L26.8984 0V6.09282L40.97 20.5678H46.549Z" fill="#0F153B"/>
<path d="M23.8171 5.55554H29.2075L32.2877 9.92062V14.2857H19.9668V9.92062L23.8171 5.55554Z" fill="#0F153B"/>
</g>
<defs>
<clipPath id="clip0_20_168">
<rect width="50" height="50" fill="white"/>
</clipPath>
</defs>
</svg>
